<svg xmlns="http://www.w3.org/2000/svg" xmlns:xlink="http://www.w3.org/1999/xlink" width="128" height="128" class="icon" p-id="8190" t="1727762654769" version="1.1" viewBox="0 0 1024 1024"><path fill="#965353" d="M1012.482 475.932l-205.584-106.714-11.124-34.342a23.804 23.804 0 0 0-1.344-3.188c-0.876-1.718-22.124-42.31-70.372-85.496-44.156-39.56-120.65-89.246-234.116-101.246-0.124-0.032-0.282-0.032-0.406-0.032l-132.806-11.344a21.598 21.598 0 0 0-1.468-0.062L21.71 128.132C15.4 128.102 9.4 130.726 5.244 135.476a21.39 21.39 0 0 0-4.968 17.312l120.526 767.954a21.384 21.384 0 0 0 9.468 14.624 21.408 21.408 0 0 0 11.594 3.376c1.876 0 3.75-0.188 5.594-0.688 12.966-3.562 318.956-86.556 396.326-129.994 67.624-37.998 215.96-94.558 240.896-103.934h77.092c5.438 0 10.656-2.062 14.624-5.812l67.996-63.994c0.438-0.376 0.844-0.812 1.218-1.25l19.25-21.312c0.906-1 1.686-2.062 2.374-3.188l30.936-50.748c0.532-0.876 0.968-1.688 1.344-2.562l22.656-51.826a21.31 21.31 0 0 0-9.688-27.502z" p-id="8191"/><path fill="#434A54" d="M703.996 362.81c0 11.782-9.562 21.312-21.344 21.312s-21.344-9.532-21.344-21.312 9.562-21.342 21.344-21.342 21.344 9.562 21.344 21.342z" p-id="8192"/><path fill="#965353" d="M593.846 106.416c-8.062-11.718-19.906-18.876-34.282-20.75a47.37 47.37 0 0 0-6.376-0.406c-41.56 0-93.996 53.592-104.09 64.31a21.302 21.302 0 0 0-4.748 21.186 21.332 21.332 0 0 0 16.248 14.376l115.964 22.312c1.344 0.25 2.688 0.376 4.032 0.376 9.656 0 18.376-6.594 20.718-16.312 2.222-9.19 12.252-56.376-7.466-85.092z" p-id="8193"/><path d="M791.024 618.756l130.432 37.184 37.062-37.184z" opacity=".2" p-id="8194"/><path fill="#434A54" d="M1012.482 475.932l-31.686-16.438s-26.748 30.124-8.344 45.968c18.376 15.844 42.966 13.406 42.966 13.406l6.75-15.438a21.304 21.304 0 0 0-9.686-27.498z" p-id="8195"/><path d="M512.004 704.124l166.274 42.064 106.402-42.064zM367.792 134.508l81.308 15.062 7.312-7.5z" opacity=".2" p-id="8196"/></svg>